<svg width="96" xmlns="http://www.w3.org/2000/svg" height="96" viewBox="0 0 96 96" xmlns:xlink="http://www.w3.org/1999/xlink">
<path d="M48.045 56.583l-12.216-10.029-26.586 31.389h77.628l-26.589-31.701-12.237 10.341zM89.778 18.057h-83.445l41.724 35.094 41.721-35.094zM62.115 44.661l27.873 33.252v-56.856l-27.873 23.604zM6.012 21.057v56.856l27.873-33.252-27.873-23.604z"/>
</svg>
<svg width="24" height="24" viewBox="0 0 24 24" fill="none" xmlns="http://www.w3.org/2000/svg">
    <path d="M12.0113 14.1458L8.9573 11.6385L2.3108 19.4858H21.7178L15.0706 11.5605L12.0113 14.1458V14.1458ZM22.4446 4.51425H1.5833L12.0143 13.2878L22.4446 4.51425V4.51425ZM15.5288 11.1653L22.4971 19.4783V5.26425L15.5288 11.1653V11.1653ZM1.50305 5.26425V19.4783L8.4713 11.1653L1.50305 5.26425V5.26425Z" fill="black"/>
</svg>
