<svg id="blue_copy" style="enable-background:new 0 0 100 100;" version="1.1" viewBox="0 0 100 100" xml:space="preserve" xmlns="http://www.w3.org/2000/svg" xmlns:xlink="http://www.w3.org/1999/xlink">
    <g id="Layer_8_copy_4_1_">
        <path d="M41.762,27.26v8.294c0,0.571,0.305,1.1,0.8,1.385l20.212,11.669c1.066,0.616,1.066,2.155,0,2.771L42.562,63.048   c-0.495,0.286-0.8,0.814-0.8,1.385v8.294c0,1.231,1.333,2.001,2.399,1.385l39.375-22.733c1.066-0.616,1.066-2.155,0-2.771   L44.161,25.875C43.095,25.259,41.762,26.029,41.762,27.26z"/>
        <path d="M83.537,48.608L44.161,25.875c-0.193-0.112-0.395-0.164-0.597-0.19l37.972,21.923c1.066,0.616,1.066,2.155,0,2.771   L42.161,73.112c-0.1,0.058-0.205,0.092-0.308,0.126c0.308,0.914,1.401,1.398,2.308,0.874l39.375-22.733   C84.603,50.763,84.603,49.224,83.537,48.608z"/>
        <path d="M41.762,27.26v8.294c0,0.571,0.305,1.1,0.8,1.385l20.212,11.669   c1.066,0.616,1.066,2.155,0,2.771L42.562,63.048c-0.495,0.286-0.8,0.814-0.8,1.385v8.294c0,1.231,1.333,2.001,2.399,1.385   l39.375-22.733c1.066-0.616,1.066-2.155,0-2.771L44.161,25.875C43.095,25.259,41.762,26.029,41.762,27.26z" style="fill:none;stroke:#000000;stroke-miterlimit:10;"/>
        <path d="M14.664,27.273v8.294c0,0.571,0.305,1.1,0.8,1.385l20.212,11.669c1.066,0.616,1.066,2.155,0,2.771L15.464,63.061   c-0.495,0.286-0.8,0.814-0.8,1.385v8.294c0,1.231,1.333,2.001,2.399,1.385l39.375-22.733c1.066-0.616,1.066-2.155,0-2.771   L17.063,25.888C15.997,25.272,14.664,26.042,14.664,27.273z"/>
        <path d="M56.438,48.621L17.063,25.888c-0.193-0.112-0.395-0.164-0.597-0.19l37.972,21.923c1.066,0.616,1.066,2.155,0,2.771   L15.063,73.125c-0.1,0.058-0.205,0.092-0.308,0.126c0.308,0.914,1.401,1.398,2.308,0.874l39.375-22.733   C57.505,50.776,57.505,49.237,56.438,48.621z"/>
        <path d="M14.664,27.273v8.294c0,0.571,0.305,1.1,0.8,1.385l20.212,11.669   c1.066,0.616,1.066,2.155,0,2.771L15.464,63.061c-0.495,0.286-0.8,0.814-0.8,1.385v8.294c0,1.231,1.333,2.001,2.399,1.385   l39.375-22.733c1.066-0.616,1.066-2.155,0-2.771L17.063,25.888C15.997,25.272,14.664,26.042,14.664,27.273z" style="fill:none;stroke:#000000;stroke-miterlimit:10;"/>
    </g>
</svg>

<svg width="20" height="20" viewBox="0 0 20 20" fill="none" xmlns="http://www.w3.org/2000/svg">
    <path d="M7.5 0.658227V4.06644C7.5 4.30108 7.58955 4.51846 7.73489 4.63557L13.6693 9.43066C13.9823 9.68379 13.9823 10.3162 13.6693 10.5693L7.73489 15.3644C7.58955 15.482 7.5 15.6989 7.5 15.9336V19.3418C7.5 19.8476 7.89138 20.164 8.20437 19.9109L19.7653 10.5693C20.0782 10.3162 20.0782 9.68379 19.7653 9.43066L8.20437 0.0890955C7.89138 -0.164035 7.5 0.152378 7.5 0.658227Z" fill="black"/>
    <path d="M0 0.658227V4.06644C0 4.30108 0.0895511 4.51846 0.234888 4.63557L6.16933 9.43066C6.48232 9.68379 6.48232 10.3162 6.16933 10.5693L0.234888 15.3644C0.0895511 15.482 0 15.6989 0 15.9336V19.3418C0 19.8476 0.391382 20.164 0.70437 19.9109L12.2653 10.5693C12.5782 10.3162 12.5782 9.68379 12.2653 9.43066L0.70437 0.0890955C0.391382 -0.164035 0 0.152378 0 0.658227Z" fill="black"/>
</svg>


<svg width="8" height="5" viewBox="0 0 8 5" xmlns="http://www.w3.org/2000/svg">
    <path d="M4 5L0 0H8L4 5Z" fill="white"/>
</svg>
