
<svg xmlns="http://www.w3.org/2000/svg"	 width="485.23px" height="485.229px" viewBox="0 0 485.23 485.229">
	<g>
		<path d="M315.53,166.812h-71.194l93.76-152.34c8.765-14.272,27.362-18.776,41.723-9.951c14.249,8.765,18.688,27.452,9.928,41.698
			L315.53,166.812z M485.22,181.973v90.979h-20.228l-61.153,183.52c-5.269,15.821-23.246,28.758-39.922,28.758H121.313
			c-16.675,0-34.634-12.937-39.924-28.758l-61.153-183.52H0.009v-90.979H485.22z M151.638,333.602
			c0-16.76-13.579-30.322-30.324-30.322c-16.748,0-30.327,13.562-30.327,30.322v60.653c0,16.759,13.579,30.321,30.327,30.321
			c16.746,0,30.324-13.562,30.324-30.321V333.602z M272.942,333.602c0-16.76-13.581-30.322-30.326-30.322
			c-16.746,0-30.324,13.562-30.324,30.322v60.653c0,16.759,13.579,30.321,30.324,30.321c16.745,0,30.326-13.562,30.326-30.321
			V333.602z M272.942,227.462c0-16.762-13.562-30.324-30.326-30.324c-16.762,0-30.324,13.562-30.324,30.324
			c0,16.759,13.562,30.327,30.324,30.327C259.379,257.789,272.942,244.227,272.942,227.462z M394.245,333.602
			c0-16.76-13.562-30.322-30.327-30.322c-16.76,0-30.322,13.562-30.322,30.322v60.653c0,16.759,13.562,30.321,30.322,30.321
			c16.765,0,30.327-13.562,30.327-30.321V333.602z"/>
	</g>
</svg>


<svg width="24" height="24" viewBox="0 0 24 24" fill="none" xmlns="http://www.w3.org/2000/svg">
	<path d="M15.6065 8.25089H12.0852L16.7226 0.715976C17.1562 0.0100663 18.076 -0.212707 18.7863 0.223788C19.4911 0.657315 19.7106 1.5816 19.2773 2.28622L15.6065 8.25089ZM23.9995 9.00077V13.5007H22.999L19.9744 22.5778C19.7137 23.3603 18.8246 24.0002 17.9998 24.0002H6.00031C5.17555 24.0002 4.28728 23.3603 4.02563 22.5778L1.00094 13.5007H0.000488281V9.00077H23.9995ZM7.50022 16.5005C7.50022 15.6716 6.82859 15.0008 6.00036 15.0008C5.17199 15.0008 4.50036 15.6716 4.50036 16.5005V19.5005C4.50036 20.3294 5.17199 21.0002 6.00036 21.0002C6.82864 21.0002 7.50022 20.3294 7.50022 19.5005V16.5005ZM13.5 16.5005C13.5 15.6716 12.8283 15.0008 12.0001 15.0008C11.1718 15.0008 10.5002 15.6716 10.5002 16.5005V19.5005C10.5002 20.3294 11.1719 21.0002 12.0001 21.0002C12.8283 21.0002 13.5 20.3294 13.5 19.5005V16.5005ZM13.5 11.2507C13.5 10.4216 12.8293 9.75085 12.0001 9.75085C11.171 9.75085 10.5002 10.4216 10.5002 11.2507C10.5002 12.0796 11.171 12.7507 12.0001 12.7507C12.8292 12.7507 13.5 12.0799 13.5 11.2507ZM19.4998 16.5005C19.4998 15.6716 18.829 15.0008 17.9998 15.0008C17.1709 15.0008 16.5001 15.6716 16.5001 16.5005V19.5005C16.5001 20.3294 17.1709 21.0002 17.9998 21.0002C18.829 21.0002 19.4998 20.3294 19.4998 19.5005V16.5005Z" fill="black"/>
</svg>
