<svg xmlns="http://www.w3.org/2000/svg" width="14" height="15" viewBox="0 0 14 15">
  <path fill="#000000" fill-rule="evenodd" d="M107,154.006845 C107,153.45078 107.449949,153 108.006845,153 L119.993155,153 C120.54922,153 121,153.449949 121,154.006845 L121,165.993155 C121,166.54922 120.550051,167 119.993155,167 L108.006845,167 C107.45078,167 107,166.550051 107,165.993155 L107,154.006845 Z M108,157 L120,157 L120,166 L108,166 L108,157 Z M116.5,163.5 L116.5,159.5 L115.757485,159.5 L114.5,160.765367 L114.98503,161.275112 L115.649701,160.597451 L115.649701,163.5 L116.5,163.5 Z M112.5,163.5 C113.412548,163.5 114,163.029753 114,162.362119 C114,161.781567 113.498099,161.473875 113.110266,161.433237 C113.532319,161.357765 113.942966,161.038462 113.942966,160.550798 C113.942966,159.906386 113.395437,159.5 112.505703,159.5 C111.838403,159.5 111.359316,159.761248 111.051331,160.115385 L111.456274,160.632075 C111.724335,160.370827 112.055133,160.231495 112.425856,160.231495 C112.819392,160.231495 113.13308,160.382438 113.13308,160.690131 C113.13308,160.974601 112.847909,161.102322 112.425856,161.102322 C112.28327,161.102322 112.020913,161.102322 111.952471,161.096517 L111.952471,161.839623 C112.009506,161.833817 112.26616,161.828012 112.425856,161.828012 C112.956274,161.828012 113.190114,161.967344 113.190114,162.275036 C113.190114,162.565312 112.93346,162.768505 112.471483,162.768505 C112.10076,162.768505 111.684411,162.605951 111.427757,162.327286 L111,162.87881 C111.279468,163.227141 111.804183,163.5 112.5,163.5 Z M110,152.5 C110,152.223858 110.214035,152 110.504684,152 L111.495316,152 C111.774045,152 112,152.231934 112,152.5 L112,153 L110,153 L110,152.5 Z M116,152.5 C116,152.223858 116.214035,152 116.504684,152 L117.495316,152 C117.774045,152 118,152.231934 118,152.5 L118,153 L116,153 L116,152.5 Z" transform="translate(-107 -152)"/>
</svg>


<svg width="24" height="24" viewBox="0 0 24 24" fill="none" xmlns="http://www.w3.org/2000/svg">
  <path fill-rule="evenodd" clip-rule="evenodd" d="M0 3.21096C0 2.32126 0.771339 1.6 1.72602 1.6H22.274C23.2272 1.6 24 2.31993 24 3.21096V22.389C24 23.2787 23.2287 24 22.274 24H1.72602C0.772763 24 0 23.2801 0 22.389V3.21096ZM1.71429 8H22.2857V22.4H1.71429V8ZM16.2857 18.4V12H15.0128L12.8571 14.0246L13.6886 14.8402L14.8281 13.7559V18.4H16.2857ZM9.42857 18.4C10.9929 18.4 12 17.6476 12 16.5794C12 15.6505 11.1396 15.1582 10.4747 15.0932C11.1983 14.9724 11.9022 14.4615 11.9022 13.6813C11.9022 12.6502 10.9636 12 9.43835 12C8.29441 12 7.47311 12.418 6.94514 12.9846L7.63933 13.8113C8.09886 13.3933 8.66594 13.1704 9.30147 13.1704C9.9761 13.1704 10.5139 13.4119 10.5139 13.9042C10.5139 14.3594 10.025 14.5637 9.30147 14.5637C9.05704 14.5637 8.60728 14.5637 8.48995 14.5544V15.7434C8.58772 15.7341 9.02771 15.7248 9.30147 15.7248C10.2108 15.7248 10.6116 15.9478 10.6116 16.4401C10.6116 16.9045 10.1716 17.2296 9.37968 17.2296C8.74416 17.2296 8.03042 16.9695 7.59044 16.5237L6.85714 17.4061C7.33623 17.9634 8.23574 18.4 9.42857 18.4ZM5.14286 0.8C5.14286 0.358173 5.50977 0 6.00803 0H7.70626C8.18408 0 8.57143 0.371094 8.57143 0.8V1.6H5.14286V0.8ZM15.4286 0.8C15.4286 0.358173 15.7955 0 16.2937 0H17.992C18.4698 0 18.8571 0.371094 18.8571 0.8V1.6H15.4286V0.8Z" fill="black"/>
</svg>
