
<svg xmlns="http://www.w3.org/2000/svg" x="0px" y="0px" width="485.227px" height="485.227px" viewBox="0 0 485.227 485.227" style="enable-background:new 0 0 485.227 485.227;"
	 xml:space="preserve">
<g>
	<path d="M438.3,443.723l-32.161,32.165c-5.745,5.713-22.561,9.325-23.069,9.325c-101.816,0.858-199.839-39.124-271.88-111.175
		C38.943,301.806-1.082,203.396,0.031,101.285c0-0.061,3.687-16.407,9.418-22.094L41.61,46.998
		c11.803-11.784,34.399-17.116,50.227-11.845l6.781,2.28c15.831,5.273,32.371,22.745,36.753,38.825l16.202,59.44
		c4.396,16.108-1.515,39.031-13.299,50.82l-21.501,21.499c21.085,78.154,82.376,139.424,160.484,160.543l21.501-21.497
		c11.789-11.789,34.77-17.684,50.876-13.296l59.439,16.228c16.051,4.354,33.524,20.871,38.826,36.72l2.254,6.781
		C455.419,409.336,450.089,431.938,438.3,443.723z M485.218,64.327L420.887,0L316.583,104.307l-43.65-43.656V212.28h151.629
		l-43.651-43.651L485.218,64.327z"/>
</g>
</svg>


<svg width="24" height="24" viewBox="0 0 24 24" xmlns="http://www.w3.org/2000/svg">
	<path d="M21.6789 21.9472L20.0882 23.5381C19.804 23.8207 18.9723 23.9993 18.9471 23.9993C13.9112 24.0417 9.06281 22.0642 5.49956 18.5004C1.92613 14.9277 -0.0535662 10.0602 0.00148436 5.0097C0.00148436 5.00668 0.183849 4.19818 0.467312 3.9169L2.05804 2.32459C2.64183 1.74173 3.75946 1.47801 4.54234 1.73872L4.87773 1.85149C5.66076 2.1123 6.47885 2.97649 6.69559 3.77183L7.49696 6.71181C7.71439 7.50854 7.42203 8.64234 6.83918 9.22544L5.77571 10.2888C6.8186 14.1544 9.85014 17.1849 13.7135 18.2295L14.7769 17.1662C15.36 16.5831 16.4967 16.2915 17.2933 16.5086L20.2333 17.3112C21.0272 17.5266 21.8914 18.3435 22.1537 19.1275L22.2651 19.4629C22.5256 20.2463 22.262 21.3643 21.6789 21.9472ZM23.9995 3.1817L20.8176 0L15.6586 5.15917L13.4996 2.99988V10.4997H20.9994L18.8403 8.34062L23.9995 3.1817Z" fill="black"/>
</svg>
