<svg xmlns="http://www.w3.org/2000/svg"	 width="137.271px" height="137.271px" viewBox="0 0 137.271 137.271">
<g>
	<g id="_x34_91._Back">
		<g>
			<path d="M123.253,40.596h-56.07V12.565c0-7.741-4.44-9.581-9.909-4.107L2.052,63.68c-2.736,2.736-2.736,7.173,0,9.911
				l55.222,55.22c5.472,5.476,9.909,3.635,9.909-4.106V96.67h56.07c7.741,0,14.018-6.276,14.018-14.018V54.613
				C137.271,46.872,130.994,40.596,123.253,40.596z M123.253,82.652H53.166v22.228L16.918,68.636L53.166,32.39v22.232h70.087V82.652
				z"/>
		</g>
	</g>
</g>
</svg>



<svg class="products-slider__arrow_prev-svg products-slider__svg" width="35" height="34" viewBox="0 0 35 34" fill="none" xmlns="http://www.w3.org/2000/svg">
	<path d="M31.4258 9.75172H17.1297V2.00568C17.1297 -0.133459 15.9976 -0.641921 14.6032 0.870756L0.523199 16.1307C-0.1744 16.8868 -0.1744 18.1129 0.523199 18.8695L14.6032 34.1289C15.9984 35.6421 17.1297 35.1334 17.1297 32.9943V25.2471H31.4258C33.3996 25.2471 35 23.5128 35 21.3734V13.6252C35 11.486 33.3996 9.75172 31.4258 9.75172ZM31.4258 21.3734H13.5557V27.5159L4.31358 17.5002L13.5557 7.48409V13.6276H31.4258V21.3734Z" fill="black"/>
</svg>


<svg class="products-slider__arrow_next-svg products-slider__svg" width="35" height="34" viewBox="0 0 35 34" fill="none" xmlns="http://www.w3.org/2000/svg">
	<path d="M3.57417 9.75172H17.8703V2.00568C17.8703 -0.133459 19.0024 -0.641921 20.3968 0.870756L34.4768 16.1307C35.1744 16.8868 35.1744 18.1129 34.4768 18.8695L20.3968 34.1289C19.0016 35.6421 17.8703 35.1334 17.8703 32.9943V25.2471H3.57417C1.60045 25.2471 0 23.5128 0 21.3734V13.6252C0 11.486 1.60045 9.75172 3.57417 9.75172ZM3.57417 21.3734H21.4443V27.5159L30.6864 17.5002L21.4443 7.48409V13.6276H3.57417V21.3734Z" fill="black"/>
</svg>
